<?xml version="1.0" standalone="no"?>
<!DOCTYPE svg PUBLIC "-//W3C//DTD SVG 20010904//EN"
 "http://www.w3.org/TR/2001/REC-SVG-20010904/DTD/svg10.dtd">
<svg version="1.0" xmlns="http://www.w3.org/2000/svg"
 width="643.000000pt" height="643.000000pt" viewBox="0 0 643.000000 643.000000"
 preserveAspectRatio="xMidYMid meet">
<metadata>
Created by potrace 1.14, written by Peter Selinger 2001-2017
</metadata>
<g transform="translate(0.000000,643.000000) scale(0.100000,-0.100000)"
fill="#000000" stroke="none">
<path d="M3920 4874 c-122 -23 -134 -27 -175 -65 -96 -88 -113 -217 -50 -377
20 -52 35 -98 33 -104 -3 -9 -92 -48 -108 -48 -3 0 -30 23 -60 50 -65 60 -134
96 -212 111 -107 22 -246 -21 -336 -105 l-44 -40 -78 3 c-43 1 -96 -3 -119
-10 -34 -10 -49 -9 -103 7 -50 15 -94 19 -218 18 -141 0 -162 -3 -237 -27 -45
-15 -110 -43 -144 -63 -34 -19 -68 -33 -75 -30 -6 2 -21 33 -33 69 -40 118
-158 218 -289 246 -93 19 -215 -9 -324 -75 l-60 -36 -41 31 c-123 91 -228 126
-359 119 -61 -3 -96 -10 -131 -28 -66 -33 -66 -38 0 -27 134 23 277 -37 398
-165 l75 -80 19 44 c26 61 89 122 146 142 55 18 161 21 220 5 29 -8 58 -29
102 -76 70 -73 84 -107 124 -298 13 -58 25 -105 28 -105 3 0 19 23 35 52 91
162 260 242 511 243 106 0 125 -3 163 -23 23 -12 42 -26 42 -30 1 -4 10 -18
21 -31 l20 -24 32 31 c38 36 75 52 123 52 26 0 43 -9 74 -40 22 -22 44 -40 49
-40 5 0 25 28 44 63 60 106 123 146 248 154 66 5 84 3 123 -17 57 -27 108 -86
137 -156 13 -30 26 -54 29 -54 4 0 15 9 26 21 10 11 43 33 74 47 50 25 65 27
164 25 l109 -1 -6 61 c-3 34 -22 109 -43 167 -60 171 -69 213 -59 256 14 55
51 78 133 82 79 5 111 -10 167 -76 81 -93 152 -302 197 -572 5 -30 25 -111 45
-180 26 -87 37 -146 37 -194 1 -69 1 -70 -34 -90 -43 -25 -121 -26 -173 -1
-37 17 -38 17 -75 -8 -129 -86 -267 -147 -354 -154 -149 -14 -283 101 -329
281 -15 59 1 163 36 231 12 25 19 45 15 45 -4 0 -11 -7 -14 -15 -9 -24 -86
-55 -137 -55 -39 0 -56 7 -100 40 -59 44 -86 49 -120 21 -23 -19 -24 -19 -6
-56 15 -32 16 -39 3 -49 -17 -13 -38 -108 -29 -133 3 -10 35 -60 70 -111 120
-176 152 -262 101 -277 -13 -4 -52 -18 -87 -32 -54 -21 -77 -24 -142 -21 -70
3 -81 6 -109 33 -38 36 -107 169 -165 320 -49 128 -51 132 -71 165 l-15 25 3
-24 c2 -13 -3 -26 -9 -28 -7 -3 -13 0 -13 6 0 20 -39 11 -86 -19 -48 -30 -157
-69 -254 -90 -111 -25 -142 -49 -104 -81 9 -7 20 -24 25 -37 9 -23 13 -24 87
-20 67 3 90 10 178 51 121 57 154 59 196 15 48 -52 68 -90 68 -129 0 -46 -20
-65 -50 -49 -18 9 -35 4 -109 -34 -112 -57 -243 -96 -326 -96 -71 0 -250 42
-275 65 -23 21 -27 19 -33 -19 -3 -19 -13 -46 -22 -60 l-17 -26 -25 20 c-37
29 -51 25 -22 -7 l24 -27 -28 18 c-28 17 -32 17 -93 0 -119 -32 -230 -1 -274
78 -17 30 -23 62 -27 139 -4 58 -10 96 -15 91 -5 -5 -11 -56 -14 -113 -3 -57
-10 -121 -16 -142 -10 -40 -11 -41 -63 -22 -16 6 -15 3 5 -13 33 -28 19 -38
-34 -24 -34 9 -52 8 -91 -3 -57 -18 -123 -19 -162 -4 -36 13 -88 64 -104 100
-15 39 -26 36 -39 -8 -17 -63 -32 -75 -89 -75 -33 1 -67 -7 -101 -24 -66 -32
-148 -48 -194 -40 -44 8 -94 50 -112 93 -20 46 -17 182 6 290 10 51 46 161 78
245 33 84 71 189 86 233 28 88 76 285 69 285 -14 0 -67 -146 -79 -219 -16 -91
-34 -143 -119 -336 -116 -262 -141 -440 -86 -604 12 -34 32 -76 44 -93 22 -30
22 -30 2 -46 -31 -26 -81 -94 -90 -122 -4 -13 -23 -58 -43 -100 -82 -179 -195
-528 -212 -660 -40 -312 28 -435 259 -466 54 -7 140 12 235 52 94 40 98 40
152 1 129 -91 295 -107 424 -42 l47 24 56 -63 c46 -52 68 -68 123 -90 104 -42
155 -49 270 -35 l101 12 114 -39 c103 -35 124 -39 214 -38 118 0 170 19 233
88 59 64 84 139 91 276 l6 115 12 -53 c7 -29 27 -87 44 -128 41 -98 123 -175
258 -242 l94 -47 107 0 c102 0 109 1 181 37 40 20 89 51 107 67 39 36 40 36
123 15 100 -26 331 -15 426 19 89 31 172 75 237 125 27 20 54 41 60 45 7 5 43
-13 93 -46 124 -83 177 -101 303 -102 136 0 188 19 328 121 21 16 27 15 90 -5
50 -15 93 -21 162 -21 149 1 229 27 316 103 l46 40 72 -17 c182 -43 347 -28
449 41 89 60 96 62 160 51 82 -14 156 -3 212 33 37 23 52 43 78 97 28 59 32
77 31 152 0 74 -6 106 -52 250 -76 237 -148 416 -194 478 -71 96 -175 163
-297 192 -114 27 -295 -13 -450 -98 -94 -52 -228 -176 -250 -230 -21 -51 -35
-33 -43 54 -14 150 -75 322 -144 402 -56 66 -103 86 -204 87 -74 0 -93 -4
-145 -29 -33 -16 -88 -56 -122 -89 l-62 -59 -28 20 c-72 51 -205 66 -300 32
-32 -11 -61 -16 -65 -12 -5 5 21 26 58 48 65 38 69 39 163 39 87 0 102 3 154
30 54 27 86 55 112 99 9 15 18 16 90 5 159 -24 414 26 578 113 90 48 168 125
212 210 33 63 38 80 39 142 0 103 -17 150 -78 215 l-53 56 15 55 c12 45 13 71
3 147 -14 121 -33 164 -93 218 -73 65 -142 89 -258 88 -79 0 -108 -5 -170 -28
-112 -41 -244 -110 -349 -181 -51 -35 -96 -64 -100 -64 -4 0 -18 26 -31 58
-29 72 -89 161 -132 197 -69 58 -188 93 -268 79z m1161 -170 c51 -30 72 -82
72 -177 1 -92 -14 -133 -60 -162 -15 -10 -39 -29 -53 -42 -24 -23 -97 -61
-255 -132 -108 -49 -135 -83 -98 -123 13 -14 31 -18 87 -18 85 0 114 12 250
104 100 66 156 87 185 69 36 -23 55 -64 59 -126 l4 -62 -64 -46 c-208 -151
-345 -198 -539 -186 -107 7 -210 36 -247 70 -49 45 -80 118 -90 207 -21 195
34 363 152 467 72 63 184 112 396 172 53 16 163 7 201 -15z m-1493 -1314 c44
-42 73 -127 38 -114 -7 3 -20 -4 -31 -15 -14 -17 -18 -38 -19 -108 l-1 -88 27
-3 c23 -3 30 2 42 33 9 20 23 80 31 133 20 124 36 148 99 145 55 -2 70 -12 98
-67 15 -29 19 -52 15 -89 -2 -27 -9 -52 -14 -56 -20 -14 -33 -70 -36 -158 -3
-87 -5 -94 -31 -114 -59 -47 -162 -43 -202 7 -18 22 -25 24 -42 15 -35 -19
-106 -13 -137 11 -30 24 -55 74 -55 113 0 14 -3 25 -7 25 -12 0 -43 -33 -43
-46 0 -7 -10 -19 -22 -25 -13 -7 -27 -18 -33 -25 -5 -7 -36 -17 -67 -24 -74
-15 -126 -1 -180 48 -50 46 -68 86 -68 154 1 107 69 191 185 227 42 13 77 18
98 14 44 -9 97 -46 126 -88 27 -40 33 -37 50 17 7 21 25 51 41 68 23 25 36 30
72 30 31 0 51 -6 66 -20z m1245 -37 c60 -30 82 -150 97 -523 12 -324 36 -455
86 -474 9 -4 32 -4 50 0 81 15 159 -30 189 -110 20 -51 14 -76 -23 -112 -55
-52 -121 -77 -214 -82 -107 -5 -167 12 -243 69 -102 77 -141 195 -199 616 -50
356 -51 520 -4 570 60 64 183 86 261 46z m-2008 -94 c26 -28 44 -53 40 -57 -4
-4 -55 -7 -113 -8 -86 0 -118 -4 -164 -22 -89 -36 -159 -124 -188 -237 -9 -37
-14 -42 -68 -62 l-59 -23 -44 22 c-27 13 -71 23 -115 26 -60 4 -79 1 -135 -23
-96 -40 -100 -40 -134 -6 -50 50 -110 65 -247 58 l-118 -5 0 24 c0 34 -32 93
-69 128 -17 17 -31 33 -31 38 0 4 17 15 38 23 20 9 50 28 65 43 25 24 30 25
50 13 78 -49 124 -65 204 -69 104 -6 162 9 239 59 l61 39 74 -19 c209 -53 418
-27 587 74 32 19 62 34 68 35 6 0 33 -23 59 -51z m1455 -8 c67 -47 84 -162 75
-501 -6 -254 4 -401 33 -460 17 -35 18 -35 75 -32 45 3 65 -1 93 -18 51 -32
84 -86 84 -139 0 -61 -45 -103 -142 -132 -136 -42 -257 -14 -359 82 -39 36
-51 56 -68 114 -33 112 -48 223 -71 510 -26 323 -24 465 8 517 47 77 200 110
272 59z m1604 -134 c74 -34 121 -95 179 -230 53 -125 113 -314 126 -396 5 -30
5 -84 0 -120 -13 -106 -59 -131 -174 -95 l-51 16 -84 -42 c-191 -97 -322 -115
-434 -60 -70 35 -99 68 -134 152 -35 89 -30 183 16 259 38 60 96 108 179 146
51 24 64 25 158 21 56 -3 108 -2 115 2 16 10 -16 72 -68 128 -56 61 -81 58
-151 -18 -64 -68 -108 -90 -183 -90 -97 0 -123 48 -73 133 103 176 400 276
579 194z m-5261 -44 c70 -36 111 -65 171 -125 43 -43 82 -78 87 -78 4 0 13 27
20 60 6 34 21 72 32 87 29 36 93 63 155 63 44 0 62 -6 117 -41 73 -46 85 -62
85 -114 0 -75 -71 -423 -101 -497 -6 -16 -19 -28 -29 -28 -25 0 -37 -18 -51
-75 -6 -28 -18 -62 -25 -77 -8 -14 -14 -34 -14 -45 -1 -31 -36 -122 -56 -144
-52 -59 -176 -77 -260 -38 -70 34 -76 47 -79 213 -3 150 -8 180 -31 207 -8 8
-20 44 -27 80 -8 41 -18 64 -26 64 -14 0 -24 -39 -66 -265 -26 -143 -56 -195
-137 -236 -96 -48 -193 -33 -228 37 -31 60 -24 186 21 398 45 215 189 563 243
589 48 24 105 14 199 -35z m2139 18 c13 -5 43 -27 68 -49 59 -51 75 -104 65
-207 l-7 -75 66 0 66 0 40 -51 c29 -37 40 -60 40 -85 0 -25 -4 -34 -16 -34 -9
0 -32 -13 -51 -30 -32 -29 -38 -30 -123 -30 -50 0 -90 -4 -90 -8 0 -5 8 -16
18 -25 16 -14 16 -30 8 -186 -8 -151 -7 -173 8 -196 13 -20 25 -25 59 -25 86
0 157 -66 157 -146 0 -60 -45 -106 -125 -129 -195 -57 -375 37 -432 225 -14
46 -17 92 -15 279 l3 224 -23 -7 c-107 -33 -133 -32 -174 9 -14 14 -29 25 -33
25 -5 0 -10 -41 -13 -90 -2 -51 -9 -95 -16 -102 -7 -7 -12 -20 -12 -30 0 -10
-5 -18 -10 -18 -18 0 -31 -51 -31 -121 -1 -104 -24 -281 -41 -314 -9 -16 -42
-45 -73 -64 -49 -30 -68 -35 -136 -39 -65 -4 -91 0 -142 18 -70 25 -87 41 -87
82 0 35 -7 35 -73 1 -47 -25 -62 -28 -157 -28 -100 0 -107 1 -150 30 -30 20
-54 48 -70 80 -24 47 -25 59 -25 210 1 280 62 506 164 598 82 74 164 71 283
-9 87 -59 101 -93 66 -161 -17 -34 -30 -47 -47 -48 -33 -3 -52 -31 -41 -61 7
-18 5 -33 -10 -58 -39 -70 -54 -242 -24 -285 14 -20 22 -22 56 -17 123 20 132
45 194 533 18 142 196 161 335 36 22 -20 41 -34 42 -32 2 2 8 16 15 32 21 48
67 68 150 65 l72 -3 0 98 c0 128 24 174 110 211 39 17 126 21 162 7z m1027
-323 c29 -14 53 -36 73 -67 25 -40 28 -52 23 -91 -20 -140 -176 -265 -400
-320 -146 -36 -168 -54 -133 -108 14 -22 33 -35 61 -43 69 -18 132 -5 262 55
121 56 168 67 197 44 31 -26 48 -63 48 -105 0 -38 -6 -49 -42 -86 -84 -83
-255 -148 -407 -155 -121 -5 -199 11 -302 65 -83 43 -103 61 -135 126 -25 49
-26 57 -22 167 11 230 96 387 255 468 144 74 417 100 522 50z m1369 -70 l23
-43 -21 -48 c-12 -26 -25 -45 -30 -42 -10 6 -24 160 -15 175 9 15 17 8 43 -42z"/>
<path d="M4710 4455 c-13 -13 -31 -27 -41 -30 -9 -3 -19 -13 -22 -23 -3 -9
-16 -34 -28 -54 -13 -21 -20 -40 -17 -43 3 -3 34 5 69 18 69 25 155 82 162
108 14 52 -79 71 -123 24z"/>
<path d="M3152 3224 c-26 -18 -28 -36 -7 -54 8 -7 15 -21 15 -32 0 -27 22 -18
39 17 9 19 11 36 5 53 -11 32 -24 36 -52 16z"/>
<path d="M5878 2694 c-52 -28 -51 -96 2 -132 27 -19 44 -23 75 -18 87 11 104
110 25 151 -36 19 -67 19 -102 -1z"/>
<path d="M5705 2609 c-125 -40 -126 -182 -2 -196 52 -6 136 18 162 47 17 19
16 22 -9 74 -15 30 -33 59 -40 65 -20 17 -76 22 -111 10z"/>
<path d="M3392 2551 c-35 -26 -102 -108 -102 -126 0 -22 211 44 248 78 28 26
28 42 0 61 -37 26 -99 20 -146 -13z"/>
<path d="M3823 4055 c-43 -18 -63 -61 -63 -134 0 -51 3 -62 22 -75 49 -34 166
-1 197 55 31 56 -35 170 -98 169 -14 -1 -40 -7 -58 -15z"/>
<path d="M2217 4029 c-46 -30 -53 -42 -41 -73 13 -33 132 -10 164 31 22 29 18
46 -16 62 -38 17 -57 14 -107 -20z"/>
</g>
</svg>
